<svg fill="#000000" xmlns="http://www.w3.org/2000/svg" viewBox="0 0 24 24" width="480px" height="480px"><path d="M 9.03125 -0.03125 C 8.566406 -0.03125 8.1875 0.347656 8.1875 0.8125 L 8.1875 3.6875 C 5.46875 3.996094 3.59375 4.621094 3.59375 5.34375 L 3.59375 6.71875 C 3.59375 7 3.894531 7.257813 4.40625 7.5 C 5.746094 8.128906 8.644531 8.5625 12 8.5625 C 15.359375 8.5625 18.25 8.128906 19.59375 7.5 C 20.101563 7.257813 20.40625 7 20.40625 6.71875 L 20.40625 5.34375 C 20.40625 4.597656 18.378906 3.949219 15.5 3.65625 L 15.5 0.8125 C 15.5 0.347656 15.121094 -0.03125 14.65625 -0.03125 Z M 9.875 1.5 L 13.84375 1.5 C 13.929688 1.5 13.96875 1.902344 13.96875 2.40625 L 13.96875 3.53125 C 13.332031 3.5 12.6875 3.46875 12 3.46875 C 11.289063 3.46875 10.59375 3.496094 9.9375 3.53125 L 9.71875 3.5625 L 9.71875 2.40625 C 9.71875 1.902344 9.792969 1.5 9.875 1.5 Z M 4.78125 9.53125 C 4.691406 9.625 4.644531 9.710938 4.625 9.8125 L 4.625 9.875 C 4.625 9.890625 4.621094 9.925781 4.625 9.9375 L 5.1875 21.6875 C 5.238281 22.609375 6.304688 24 12 24 C 17.695313 24 18.761719 22.609375 18.8125 21.6875 L 19.375 9.9375 C 19.375 9.921875 19.375 9.890625 19.375 9.875 L 19.375 9.8125 C 19.359375 9.710938 19.308594 9.625 19.21875 9.53125 C 18.484375 10.277344 15.527344 10.375 12 10.375 C 8.472656 10.375 5.519531 10.277344 4.78125 9.53125 Z"/></svg>